<svg xmlns="http://www.w3.org/2000/svg" width="962" height="1120" viewBox="0 0 962 1120" role="img" aria-labelledby="title desc">
  <title id="title">Whitebox Component Diagram: Dense Boundary Shell</title>
  <desc id="desc">Client A -&gt; Intake A; Client B -&gt; Intake B; Client C -&gt; Intake C; Client D -&gt; Intake D; Client E -&gt; Intake E; Client F -&gt; Intake F; Intake A -&gt; Worker A.Task; Intake B -&gt; Worker B.Task; Intake C -&gt; Worker C.Task; Intake D -&gt; Worker D.Task; Intake E -&gt; Worker E.Task; Intake F -&gt; Worker F.Task</desc>
  <metadata data-diagram-complexity-signal="dense">Diagram Complexity Signal raw metrics: ports=12; component_ports=6; part_ports=6; parts=6; externals=6; interfaces=0; interface_roles=0; connectors=12; warnings=ports&gt;=10,connectors&gt;=10,parts&gt;=6</metadata>
  <defs>
    <marker id="arrowhead" markerWidth="10" markerHeight="7" refX="9" refY="3.5" orient="auto">
      <polygon points="0 0, 10 3.5, 0 7" fill="#1f2937" />
    </marker>
  </defs>
  <rect x="250" y="286" width="652" height="572" rx="8" fill="#ffffff" stroke="#1f2937" stroke-width="2" />
  <text x="576" y="320" text-anchor="middle" font-family="Arial, sans-serif" font-size="18" font-weight="700" fill="#111827">Dense Boundary Shell</text>
  <rect x="190" y="376" width="120" height="44" rx="6" fill="#eff6ff" stroke="#2563eb" stroke-width="2" />
  <text x="250" y="403" text-anchor="middle" font-family="Arial, sans-serif" font-size="14" fill="#1e3a8a">Intake A</text>
  <rect x="190" y="446" width="120" height="44" rx="6" fill="#eff6ff" stroke="#2563eb" stroke-width="2" />
  <text x="250" y="473" text-anchor="middle" font-family="Arial, sans-serif" font-size="14" fill="#1e3a8a">Intake B</text>
  <rect x="190" y="516" width="120" height="44" rx="6" fill="#eff6ff" stroke="#2563eb" stroke-width="2" />
  <text x="250" y="543" text-anchor="middle" font-family="Arial, sans-serif" font-size="14" fill="#1e3a8a">Intake C</text>
  <rect x="190" y="586" width="120" height="44" rx="6" fill="#eff6ff" stroke="#2563eb" stroke-width="2" />
  <text x="250" y="613" text-anchor="middle" font-family="Arial, sans-serif" font-size="14" fill="#1e3a8a">Intake D</text>
  <rect x="190" y="656" width="120" height="44" rx="6" fill="#eff6ff" stroke="#2563eb" stroke-width="2" />
  <text x="250" y="683" text-anchor="middle" font-family="Arial, sans-serif" font-size="14" fill="#1e3a8a">Intake E</text>
  <rect x="190" y="726" width="120" height="44" rx="6" fill="#eff6ff" stroke="#2563eb" stroke-width="2" />
  <text x="250" y="753" text-anchor="middle" font-family="Arial, sans-serif" font-size="14" fill="#1e3a8a">Intake F</text>
  <rect x="410" y="351" width="190" height="120" rx="8" fill="#f8fafc" stroke="#64748b" stroke-width="2" />
  <text x="505" y="382" text-anchor="middle" font-family="Arial, sans-serif" font-size="15" font-weight="700" fill="#334155">Worker A</text>
  <rect x="341" y="405" width="138" height="34" rx="6" fill="#ecfdf5" stroke="#059669" stroke-width="2" />
  <text x="410" y="427" text-anchor="middle" font-family="Arial, sans-serif" font-size="12" fill="#065f46">Task</text>
  <rect x="712" y="351" width="190" height="120" rx="8" fill="#f8fafc" stroke="#64748b" stroke-width="2" />
  <text x="807" y="382" text-anchor="middle" font-family="Arial, sans-serif" font-size="15" font-weight="700" fill="#334155">Worker B</text>
  <rect x="643" y="405" width="138" height="34" rx="6" fill="#ecfdf5" stroke="#059669" stroke-width="2" />
  <text x="712" y="427" text-anchor="middle" font-family="Arial, sans-serif" font-size="12" fill="#065f46">Task</text>
  <rect x="410" y="527" width="190" height="120" rx="8" fill="#f8fafc" stroke="#64748b" stroke-width="2" />
  <text x="505" y="558" text-anchor="middle" font-family="Arial, sans-serif" font-size="15" font-weight="700" fill="#334155">Worker C</text>
  <rect x="341" y="581" width="138" height="34" rx="6" fill="#ecfdf5" stroke="#059669" stroke-width="2" />
  <text x="410" y="603" text-anchor="middle" font-family="Arial, sans-serif" font-size="12" fill="#065f46">Task</text>
  <rect x="712" y="527" width="190" height="120" rx="8" fill="#f8fafc" stroke="#64748b" stroke-width="2" />
  <text x="807" y="558" text-anchor="middle" font-family="Arial, sans-serif" font-size="15" font-weight="700" fill="#334155">Worker D</text>
  <rect x="643" y="581" width="138" height="34" rx="6" fill="#ecfdf5" stroke="#059669" stroke-width="2" />
  <text x="712" y="603" text-anchor="middle" font-family="Arial, sans-serif" font-size="12" fill="#065f46">Task</text>
  <rect x="410" y="703" width="190" height="120" rx="8" fill="#f8fafc" stroke="#64748b" stroke-width="2" />
  <text x="505" y="734" text-anchor="middle" font-family="Arial, sans-serif" font-size="15" font-weight="700" fill="#334155">Worker E</text>
  <rect x="341" y="757" width="138" height="34" rx="6" fill="#ecfdf5" stroke="#059669" stroke-width="2" />
  <text x="410" y="779" text-anchor="middle" font-family="Arial, sans-serif" font-size="12" fill="#065f46">Task</text>
  <rect x="712" y="703" width="190" height="120" rx="8" fill="#f8fafc" stroke="#64748b" stroke-width="2" />
  <text x="807" y="734" text-anchor="middle" font-family="Arial, sans-serif" font-size="15" font-weight="700" fill="#334155">Worker F</text>
  <rect x="643" y="757" width="138" height="34" rx="6" fill="#ecfdf5" stroke="#059669" stroke-width="2" />
  <text x="712" y="779" text-anchor="middle" font-family="Arial, sans-serif" font-size="12" fill="#065f46">Task</text>
  <rect x="40" y="366" width="130" height="64" rx="8" fill="#f9fafb" stroke="#4b5563" stroke-width="2" />
  <text x="105" y="403" text-anchor="middle" font-family="Arial, sans-serif" font-size="14" fill="#111827">Client A</text>
  <rect x="40" y="436" width="130" height="64" rx="8" fill="#f9fafb" stroke="#4b5563" stroke-width="2" />
  <text x="105" y="473" text-anchor="middle" font-family="Arial, sans-serif" font-size="14" fill="#111827">Client B</text>
  <rect x="40" y="506" width="130" height="64" rx="8" fill="#f9fafb" stroke="#4b5563" stroke-width="2" />
  <text x="105" y="543" text-anchor="middle" font-family="Arial, sans-serif" font-size="14" fill="#111827">Client C</text>
  <rect x="40" y="576" width="130" height="64" rx="8" fill="#f9fafb" stroke="#4b5563" stroke-width="2" />
  <text x="105" y="613" text-anchor="middle" font-family="Arial, sans-serif" font-size="14" fill="#111827">Client D</text>
  <rect x="40" y="646" width="130" height="64" rx="8" fill="#f9fafb" stroke="#4b5563" stroke-width="2" />
  <text x="105" y="683" text-anchor="middle" font-family="Arial, sans-serif" font-size="14" fill="#111827">Client E</text>
  <rect x="40" y="716" width="130" height="64" rx="8" fill="#f9fafb" stroke="#4b5563" stroke-width="2" />
  <text x="105" y="753" text-anchor="middle" font-family="Arial, sans-serif" font-size="14" fill="#111827">Client F</text>
  <line x1="170" y1="398" x2="190" y2="398" stroke="#1f2937" stroke-width="2" marker-end="url(#arrowhead)" />
  <text x="180" y="36" text-anchor="middle" font-family="Arial, sans-serif" font-size="12" fill="#4b5563">enters A</text>
  <line x1="170" y1="468" x2="190" y2="468" stroke="#1f2937" stroke-width="2" marker-end="url(#arrowhead)" />
  <text x="180" y="52" text-anchor="middle" font-family="Arial, sans-serif" font-size="12" fill="#4b5563">enters B</text>
  <line x1="170" y1="538" x2="190" y2="538" stroke="#1f2937" stroke-width="2" marker-end="url(#arrowhead)" />
  <text x="180" y="68" text-anchor="middle" font-family="Arial, sans-serif" font-size="12" fill="#4b5563">enters C</text>
  <line x1="170" y1="608" x2="190" y2="608" stroke="#1f2937" stroke-width="2" marker-end="url(#arrowhead)" />
  <text x="180" y="84" text-anchor="middle" font-family="Arial, sans-serif" font-size="12" fill="#4b5563">enters D</text>
  <line x1="170" y1="678" x2="190" y2="678" stroke="#1f2937" stroke-width="2" marker-end="url(#arrowhead)" />
  <text x="180" y="100" text-anchor="middle" font-family="Arial, sans-serif" font-size="12" fill="#4b5563">enters E</text>
  <line x1="170" y1="748" x2="190" y2="748" stroke="#1f2937" stroke-width="2" marker-end="url(#arrowhead)" />
  <text x="180" y="116" text-anchor="middle" font-family="Arial, sans-serif" font-size="12" fill="#4b5563">enters F</text>
  <line x1="310" y1="398" x2="341" y2="422" stroke="#1f2937" stroke-width="2" marker-end="url(#arrowhead)" />
  <text x="325" y="132" text-anchor="middle" font-family="Arial, sans-serif" font-size="12" fill="#4b5563">delegates A</text>
  <line x1="310" y1="468" x2="643" y2="422" stroke="#1f2937" stroke-width="2" marker-end="url(#arrowhead)" />
  <text x="476" y="148" text-anchor="middle" font-family="Arial, sans-serif" font-size="12" fill="#4b5563">delegates B</text>
  <line x1="310" y1="538" x2="341" y2="598" stroke="#1f2937" stroke-width="2" marker-end="url(#arrowhead)" />
  <text x="325" y="164" text-anchor="middle" font-family="Arial, sans-serif" font-size="12" fill="#4b5563">delegates C</text>
  <line x1="310" y1="608" x2="643" y2="598" stroke="#1f2937" stroke-width="2" marker-end="url(#arrowhead)" />
  <text x="476" y="180" text-anchor="middle" font-family="Arial, sans-serif" font-size="12" fill="#4b5563">delegates D</text>
  <line x1="310" y1="678" x2="341" y2="774" stroke="#1f2937" stroke-width="2" marker-end="url(#arrowhead)" />
  <text x="325" y="196" text-anchor="middle" font-family="Arial, sans-serif" font-size="12" fill="#4b5563">delegates E</text>
  <line x1="310" y1="748" x2="643" y2="774" stroke="#1f2937" stroke-width="2" marker-end="url(#arrowhead)" />
  <text x="476" y="212" text-anchor="middle" font-family="Arial, sans-serif" font-size="12" fill="#4b5563">delegates F</text>
</svg>
